<svg width="8.2806mm" height="7.5567mm" version="1.1" viewBox="0 0 8.2806 7.5567" xmlns="http://www.w3.org/2000/svg">
 <g transform="translate(-77.273 -101.39)">
  <g transform="translate(10.445,90.22)" stroke="#999">
   <g transform="translate(-16.476,16.25)">
    <g fill="#ececec" stroke-width=".17292">
     <rect transform="scale(-1,1)" x="-90.875" y=".08646" width="6.4358" height="1.5142"/>
     <ellipse transform="scale(-1,1)" cx="-90.511" cy=".94844" rx=".7897" ry=".86198"/>
     <ellipse transform="scale(-1,1)" cx="-84.572" cy=".94844" rx=".7897" ry=".86198"/>
    </g>
    <ellipse transform="scale(-1,1)" cx="-87.569" cy="1.5054" rx="3.4206" ry=".91895" fill="#ccc" stroke-width=".11458"/>
   </g>
   <path d="m67.569 15.762c0-1.2402-1.5885-4.199 3.4522-4.2561 4.9091-0.05559 3.363 3.0159 3.363 4.2561-1e-6 1.2402-1.5805 1.4591-3.4624 1.4591s-3.3527-0.21884-3.3527-1.4591z" fill="#ececec" stroke-width=".17292"/>
   <path d="m73.231 13.052c0 1.6576 0.36181 4.1908 0.87782 4.1908s0.93462-2.5565 0.93462-4.2141-0.41861-1.7887-0.93462-1.7887-0.87782 0.1544-0.87782 1.812z" fill="#ccc" stroke-width=".13018"/>
   <path d="m66.893 13.052c0 1.6576 0.36181 4.1908 0.87782 4.1908s0.93462-2.5565 0.93462-4.2141-0.41861-1.7887-0.93462-1.7887-0.87782 0.1544-0.87782 1.812z" fill="#ccc" stroke-width=".13018"/>
  </g>
 </g>
</svg>
